<svg width="1628" height="206" viewBox="0 0 1628 206" fill="none" xmlns="http://www.w3.org/2000/svg">
<path id="keepExploring" d="M47.2593 161.151H0.454102L25.5308 27.5999L27.9374 16.1626H74.9518L47.2593 161.151ZM136.475 148.179C132.523 159.756 122.931 165.544 107.702 165.544C96.4246 165.544 86.9031 158.803 79.1371 145.32C71.2316 131.86 66.5464 114.146 65.0816 92.1785C81.1949 62.7252 94.8086 41.9313 105.923 29.7967C116.618 18.22 127.535 12.4316 138.673 12.4316C144.671 12.4316 149.833 14.0356 154.158 17.2436C158.483 20.4749 161.157 24.6592 162.18 29.7967C157.204 31.8424 153.542 33.6672 151.193 35.2712C145.334 39.6648 138.452 46.7666 130.546 56.5766L110.561 80.532C107.33 84.3444 105.051 87.1224 103.726 88.8659C105.934 101.163 110.329 113.391 116.909 125.549C123.21 137.125 129.732 144.669 136.475 148.179ZM238.003 124.014C241.653 126.502 243.479 130.5 243.479 136.01C243.479 141.496 242.083 145.994 239.293 149.504C236.526 153.014 232.876 155.943 228.342 158.291C218.948 163.127 209.206 165.544 199.115 165.544C189 165.544 180.979 164.452 175.049 162.266C169.12 160.058 164.168 156.908 160.192 152.817C152.449 145.052 148.578 134.069 148.578 119.865C148.578 97.7344 154.577 79.9392 166.574 66.4795C179.479 51.9738 197.127 44.7209 219.518 44.7209C233.446 44.7209 243.851 47.6499 250.733 53.508C255.872 57.9016 258.441 63.69 258.441 70.8731C258.441 96.6534 236.166 109.544 191.616 109.544C191.035 113.333 190.744 116.843 190.744 120.074C190.744 126.816 192.244 131.465 195.243 134.022C198.266 136.579 202.556 137.858 208.113 137.858C213.67 137.858 219.413 136.579 225.342 134.022C231.295 131.465 235.515 128.129 238.003 124.014ZM193.186 100.094C203.579 100.094 211.775 96.8626 217.774 90.4001C223.773 84.2631 226.772 76.2895 226.772 66.4795C226.772 63.1088 226.156 60.5052 224.924 58.6687C223.668 56.8323 221.797 55.914 219.309 55.914C216.821 55.914 214.519 56.3906 212.403 57.3437C210.264 58.2968 208.101 60.389 205.916 63.6202C200.498 70.9429 196.255 83.1007 193.186 100.094ZM354.876 124.014C358.55 126.502 360.387 130.5 360.387 136.01C360.387 141.496 358.992 145.994 356.202 149.504C353.412 153.014 349.749 155.943 345.215 158.291C335.845 163.127 326.103 165.544 315.988 165.544C305.897 165.544 297.875 164.452 291.923 162.266C285.994 160.058 281.053 156.908 277.1 152.817C269.334 145.052 265.451 134.069 265.451 119.865C265.451 97.7344 271.462 79.9392 283.483 66.4795C296.364 51.9738 314.012 44.7209 336.426 44.7209C350.354 44.7209 360.759 47.6499 367.641 53.508C372.757 57.9016 375.314 63.69 375.314 70.8731C375.314 96.6534 353.051 109.544 308.525 109.544C307.943 113.333 307.653 116.843 307.653 120.074C307.653 126.816 309.152 131.465 312.152 134.022C315.151 136.579 319.441 137.858 325.021 137.858C330.579 137.858 336.322 136.579 342.251 134.022C348.18 131.465 352.389 128.129 354.876 124.014ZM310.059 100.094C320.453 100.094 328.66 96.8626 334.682 90.4001C340.681 84.2631 343.681 76.2895 343.681 66.4795C343.681 63.1088 343.053 60.5052 341.797 58.6687C340.565 56.8323 338.705 55.914 336.217 55.914C333.729 55.914 331.416 56.3906 329.277 57.3437C327.161 58.2968 325.01 60.389 322.824 63.6202C317.383 70.9429 313.128 83.1007 310.059 100.094ZM485.178 146.087C479.039 152.317 471.75 157.117 463.31 160.488C454.893 163.859 446.51 165.544 438.163 165.544C429.816 165.544 424.177 164.812 421.248 163.347L414.447 200.693L369.839 205.086L400.147 49.1145L435.966 45.3834L433.106 60.5517C439.268 50.1373 448.719 44.9301 461.461 44.9301C475.807 44.9301 486.794 49.5445 494.42 58.7734C501.163 67.1188 504.535 77.6611 504.535 90.4001C504.535 103.162 502.849 114.077 499.477 123.143C496.106 132.232 491.339 139.88 485.178 146.087ZM435.513 84.4723L423.898 148.842C426.968 151.492 430.409 152.817 434.222 152.817C438.012 152.817 441.011 152.085 443.22 150.62C445.406 149.155 447.313 146.959 448.94 144.03C453.335 136.103 457.288 120.132 460.799 96.1187C461.822 89.0983 462.333 82.1476 462.333 75.2667C462.333 68.3858 461.566 63.8411 460.031 61.6327C458.497 59.4475 456.265 58.3549 453.335 58.3549C444.383 58.3549 438.442 67.0607 435.513 84.4723ZM656.808 127.327C659.575 130.837 660.959 135.452 660.959 141.17C660.959 149.074 658.029 155.107 652.17 159.268C646.31 163.452 638.765 165.544 629.534 165.544C624.28 165.544 617.618 164.963 609.55 163.801C593.739 161.29 583.415 160.035 578.579 160.035C573.743 160.035 570.371 160.151 568.464 160.384C566.558 160.593 564.07 160.848 561.001 161.151L588.031 16.1626H682.722C682.722 25.0893 680.56 31.9005 676.235 36.5963C671.91 41.292 665.505 43.6399 657.018 43.6399C648.508 43.6399 639.94 41.6524 631.313 37.6772L624.477 76.1384H663.61C663.61 83.9027 661.703 89.9468 657.89 94.2707C654.076 98.5945 648.984 100.756 642.613 100.756C636.243 100.756 631.081 100.013 627.128 98.5248C623.175 97.0602 620.978 96.1187 620.536 95.7003L612.619 137.195C616.13 137.637 621.187 137.858 627.791 137.858C639.068 137.858 648.74 134.348 656.808 127.327ZM710.415 161.813C705.718 164.301 700.149 165.544 693.709 165.544C687.268 165.544 682.292 163.894 678.781 160.593C675.247 157.315 673.48 152.48 673.48 146.087C673.48 139.717 675.712 133.429 680.176 127.222C684.664 120.992 690.232 116.122 696.882 112.612C703.556 109.079 709.241 106.289 713.937 104.243L700.091 72.4074C697.603 66.991 694.011 64.2828 689.314 64.2828L687.57 64.492H686.908C687.768 59.3545 691.209 54.8098 697.231 50.8579C703.23 46.7666 709.671 44.7209 716.553 44.7209C727.691 44.7209 735.817 50.2884 740.932 61.4234L742.711 64.9453L752.163 88.2033C756.116 86.4599 758.929 83.9376 760.603 80.6366C762.3 77.3356 763.149 72.4306 763.149 65.9216C763.149 59.4126 761.394 54.1008 757.883 49.9862C763.44 46.476 769.88 44.7209 777.205 44.7209C790.388 44.7209 796.98 51.0904 796.98 63.8295C796.98 77.7541 788.261 88.738 770.822 96.7813L757.639 102.918L769.497 133.464C771.845 139.624 775.147 144.018 779.402 146.645C781.169 147.83 783.076 148.493 785.122 148.632C780.727 155.816 773.763 161.011 764.23 164.219C761.301 165.103 757.859 165.544 753.907 165.544C749.954 165.544 745.711 164.184 741.176 161.464C736.619 158.768 733.538 155.293 731.934 151.038L719.867 119.621C711.659 123.294 707.555 131.79 707.555 145.111C707.555 151.271 708.508 156.838 710.415 161.813ZM905.309 146.087C899.147 152.317 891.858 157.117 883.441 160.488C875.024 163.859 866.641 165.544 858.294 165.544C849.947 165.544 844.308 164.812 841.379 163.347L834.543 200.693L789.935 205.086L820.278 49.1145L856.097 45.3834L853.237 60.5517C859.375 50.1373 868.815 44.9301 881.557 44.9301C895.927 44.9301 906.913 49.5445 914.516 58.7734C921.259 67.1188 924.631 77.6611 924.631 90.4001C924.631 103.162 922.945 114.077 919.573 123.143C916.202 132.232 911.447 139.88 905.309 146.087ZM855.644 84.4723L843.995 148.842C847.064 151.492 850.505 152.817 854.318 152.817C858.131 152.817 861.143 152.085 863.351 150.62C865.537 149.155 867.432 146.959 869.036 144.03C873.431 136.103 877.395 120.132 880.929 96.1187C881.953 89.0983 882.464 82.1476 882.464 75.2667C882.464 68.3858 881.685 63.8411 880.127 61.6327C878.593 59.4475 876.361 58.3549 873.431 58.3549C864.502 58.3549 858.573 67.0607 855.644 84.4723ZM990.339 149.086C985.805 160.058 976.284 165.544 961.775 165.544C954.451 165.544 948.44 162.975 943.743 157.838C939.953 153.607 938.058 149.074 938.058 144.239C938.058 133.243 940.616 115.739 945.731 91.7252L961.775 7.3755L1006.38 2.98192L985.073 114.146C982.585 124.979 981.341 132.302 981.341 136.114C981.341 144.46 984.34 148.784 990.339 149.086ZM1056.92 165.544C1024.69 165.544 1008.58 150.388 1008.58 120.074C1008.58 98.548 1014.51 80.8226 1026.37 66.898C1038.97 52.1133 1056.19 44.7209 1078.02 44.7209C1093.83 44.7209 1105.77 48.3822 1113.84 55.7048C1121.88 63.0275 1125.91 74.3717 1125.91 89.7376C1125.91 113.193 1119.61 131.721 1107 145.32C1094.7 158.803 1078.01 165.544 1056.92 165.544ZM1062.64 70.0014C1060.87 73.9533 1059.29 78.8931 1057.9 84.821C1056.5 90.7488 1054.93 98.3969 1053.19 107.765C1051.42 117.134 1050.54 127.606 1050.54 139.183C1050.54 142.995 1051.17 146.145 1052.42 148.632C1053.65 151.12 1055.96 152.363 1059.33 152.363C1062.7 152.363 1065.44 151.561 1067.56 149.957C1069.7 148.33 1071.57 145.622 1073.17 141.833C1076.1 135.091 1078.74 125.456 1081.09 112.926C1083.44 100.419 1084.72 91.4462 1084.93 86.0066C1085.16 80.5901 1085.28 75.8711 1085.28 71.8495C1085.28 67.8278 1084.68 64.492 1083.5 61.8419C1082.33 59.215 1080.1 57.9016 1076.8 57.9016C1073.5 57.9016 1070.75 58.9245 1068.57 60.9701C1066.36 63.0158 1064.38 66.0262 1062.64 70.0014ZM1207.66 99.4314C1212.91 90.063 1215.54 80.6134 1215.54 71.0823C1215.54 64.7826 1213.27 61.6327 1208.74 61.6327C1205.23 61.6327 1201.64 64.6315 1197.96 70.629C1194.17 76.6499 1191.69 83.5424 1190.5 91.3067L1179.09 161.151L1133.61 165.544L1156.01 49.1145L1192.28 44.7209L1188.3 66.898C1195.49 52.1133 1207.14 44.7209 1223.25 44.7209C1231.74 44.7209 1238.29 46.9177 1242.92 51.3113C1247.52 55.7048 1249.83 62.3998 1249.83 71.3962C1249.83 80.4158 1246.86 87.7849 1240.93 93.5035C1235 99.1989 1226.98 102.047 1216.87 102.047C1212.47 102.047 1209.4 101.175 1207.66 99.4314ZM1306.08 149.086C1301.55 160.058 1292.03 165.544 1277.52 165.544C1270.05 165.544 1263.97 162.975 1259.28 157.838C1255.32 153.305 1253.35 148.772 1253.35 144.239C1253.35 132.383 1256.06 114.879 1261.47 91.7252L1269.6 49.1145L1314.21 44.7209L1300.82 114.146C1298.33 124.979 1297.08 132.302 1297.08 136.114C1297.08 144.46 1300.08 148.784 1306.08 149.086ZM1273.58 18.5687C1273.58 12.8733 1275.95 8.47971 1280.69 5.38793C1285.46 2.3194 1291.28 0.785126 1298.17 0.785126C1305.05 0.785126 1310.58 2.3194 1314.77 5.38793C1318.93 8.47971 1321.01 12.8733 1321.01 18.5687C1321.01 24.2873 1318.71 28.6111 1314.1 31.5402C1309.48 34.4692 1303.72 35.9337 1296.84 35.9337C1289.96 35.9337 1284.35 34.4692 1280.03 31.5402C1275.73 28.6111 1273.58 24.2873 1273.58 18.5687ZM1417.69 165.544C1399.97 165.544 1391.11 158.663 1391.11 144.901C1391.25 141.089 1391.92 135.963 1393.1 129.524L1397.04 109.299C1401 90.2606 1402.97 78.6142 1402.97 74.3601C1402.97 65.8751 1400.48 61.6327 1395.51 61.6327C1387.16 61.6327 1380.79 72.5469 1376.4 94.3753L1363.42 161.151L1319.27 165.544L1342.11 48.9052L1378.14 44.7209L1374.65 66.2355C1381.53 51.8924 1395.52 44.7209 1416.61 44.7209C1426.86 44.7209 1434.15 46.8828 1438.48 51.2066C1442.8 55.5305 1444.96 62.516 1444.96 72.1633C1444.96 81.2527 1442.62 96.4209 1437.92 117.668C1435.73 127.176 1434.64 133.72 1434.64 137.3C1434.64 140.903 1435.63 143.727 1437.6 145.773C1439.58 147.819 1442.03 148.993 1444.96 149.295C1443.5 154.27 1440.23 158.222 1435.16 161.151C1430.12 164.08 1424.29 165.544 1417.69 165.544ZM1478.13 69.3389C1483.11 62.2952 1489.37 56.4371 1496.93 51.7646C1504.46 47.0688 1512.85 44.7209 1522.08 44.7209C1531.31 44.7209 1538.12 46.1854 1542.52 49.1145L1585.59 44.7209L1570.63 129.071C1565.51 157.78 1557.52 177.772 1546.67 189.046C1536.27 199.74 1520.97 205.086 1500.77 205.086C1485.38 205.086 1473.28 202.669 1464.5 197.834C1455.71 192.998 1451.31 186.559 1451.31 178.516C1451.31 172.495 1453.59 167.764 1458.15 164.324C1462.68 160.883 1468.46 159.163 1475.48 159.163C1481.64 159.163 1487.06 160.558 1491.73 163.347C1494.52 164.812 1496.58 166.567 1497.91 168.613C1494.54 171.542 1492.85 175.424 1492.85 180.259C1492.85 186.559 1495.78 189.709 1501.64 189.709C1511.45 189.709 1519.14 178.144 1524.69 155.014C1526.32 148.714 1527.8 142.414 1529.12 136.114C1522.52 144.157 1511.74 148.179 1496.79 148.179C1486.4 148.179 1478.2 145.692 1472.2 140.717C1466.18 135.742 1463.17 127.397 1463.17 115.681C1463.17 108.358 1464.43 100.559 1466.94 92.2831C1469.42 84.0074 1473.16 76.3593 1478.13 69.3389ZM1506.7 116.343C1506.7 126.293 1509.25 131.267 1514.37 131.267C1517.9 131.267 1521.34 129.361 1524.69 125.549C1527.34 122.48 1529.18 118.679 1530.2 114.146L1541.4 57.6924C1540.68 57.5297 1539.95 57.3088 1539.2 57.0299C1537.74 56.4487 1536.05 56.1581 1534.14 56.1581C1525.22 56.1581 1518.11 63.4808 1512.83 78.126C1508.74 89.54 1506.7 102.279 1506.7 116.343ZM1574.81 189.5C1586.09 177.342 1591.73 163.65 1591.73 148.423C1591.73 143.727 1590.93 139.183 1589.32 134.789C1591.06 133.627 1593.69 132.639 1597.2 131.825C1600.74 131.012 1603.82 130.605 1606.45 130.605C1612.89 130.605 1618.01 132.325 1621.83 135.766C1625.64 139.206 1627.55 143.937 1627.55 149.957C1627.55 155.955 1626.37 161.371 1624.02 166.207C1621.68 171.042 1618.52 175.284 1614.57 178.934C1606.08 186.861 1595.98 190.825 1584.26 190.825C1581.92 190.825 1578.76 190.383 1574.81 189.5Z" fill="url(#paint0_linear)"/>
<defs>
<linearGradient id="paint0_linear" x1="70.7888" y1="61.3874" x2="202.008" y2="526.675" gradientUnits="userSpaceOnUse">
<stop stop-color="white"/>
<stop offset="1" stop-color="white"/>
</linearGradient>
</defs>
</svg>
